ply
format ascii 1.0
comment Created by Blender 2.69 (sub 0) - www.blender.org, source file: ''
element vertex 495
property float x
property float y
property float z
property float nx
property float ny
property float nz
element face 384
property list uchar uint vertex_indices
end_header
-0.750000 -0.750000 -1.000000 0.000000 0.000000 -1.000000
-0.750000 -1.000000 -1.000000 0.000000 0.000000 -1.000000
-1.000000 -1.000000 -1.000000 0.000000 0.000000 -1.000000
-1.000000 -0.750000 -1.000000 0.000000 0.000000 -1.000000
-0.750000 -0.750000 1.000000 0.000000 -0.000000 1.000000
-1.000000 -0.750000 1.000000 0.000000 -0.000000 1.000000
-1.000000 -1.000000 1.000000 0.000000 -0.000000 1.000000
-0.750000 -1.000000 1.000000 0.000000 -0.000000 1.000000
1.000000 -0.750000 0.750000 1.000000 -0.000001 0.000000
1.000000 -0.750001 1.000000 1.000000 -0.000001 0.000000
0.999999 -1.000001 1.000000 1.000000 -0.000001 0.000000
0.999999 -1.000000 0.750000 1.000000 -0.000001 0.000000
-0.750000 -1.000000 0.750000 -0.000000 -1.000000 -0.000000
-0.750000 -1.000000 1.000000 -0.000000 -1.000000 -0.000000
-1.000000 -1.000000 1.000000 -0.000000 -1.000000 -0.000000
-1.000000 -1.000000 0.750000 -0.000000 -1.000000 -0.000000
-1.000000 0.750000 0.750000 -1.000000 0.000000 -0.000000
-1.000000 0.750000 1.000000 -1.000000 0.000000 -0.000000
-1.000000 1.000000 1.000000 -1.000000 0.000000 -0.000000
-1.000000 1.000000 0.750000 -1.000000 0.000000 -0.000000
-0.750000 1.000000 -0.750000 0.000000 1.000000 0.000000
-0.750000 1.000000 -1.000000 0.000000 1.000000 0.000000
-1.000000 1.000000 -1.000000 0.000000 1.000000 0.000000
-1.000000 1.000000 -0.750000 0.000000 1.000000 0.000000
-0.750000 0.250000 -1.000000 0.000000 0.000000 -1.000000
-0.750000 0.000000 -1.000000 0.000000 0.000000 -1.000000
-1.000000 0.000000 -1.000000 0.000000 0.000000 -1.000000
-1.000000 0.250000 -1.000000 0.000000 0.000000 -1.000000
0.250000 0.250000 -1.000000 0.000000 0.000000 -1.000000
0.250000 0.000000 -1.000000 0.000000 0.000000 -1.000000
0.000000 0.000000 -1.000000 0.000000 0.000000 -1.000000
0.000000 0.250000 -1.000000 0.000000 0.000000 -1.000000
0.250000 -0.750000 -1.000000 0.000000 0.000000 -1.000000
0.250000 -1.000000 -1.000000 0.000000 0.000000 -1.000000
0.000000 -1.000000 -1.000000 0.000000 0.000000 -1.000000
0.000000 -0.750000 -1.000000 0.000000 0.000000 -1.000000
0.250000 -0.750000 1.000000 0.000000 -0.000000 1.000000
-0.000000 -0.750000 1.000000 0.000000 -0.000000 1.000000
-0.000001 -1.000000 1.000000 0.000000 -0.000000 1.000000
0.249999 -1.000000 1.000000 0.000000 -0.000000 1.000000
0.250000 0.250000 1.000000 0.000000 -0.000000 1.000000
-0.000000 0.250000 1.000000 0.000000 -0.000000 1.000000
-0.000000 -0.000000 1.000000 0.000000 -0.000000 1.000000
0.250000 -0.000000 1.000000 0.000000 -0.000000 1.000000
-0.750000 0.250000 1.000000 0.000000 -0.000000 1.000000
-1.000000 0.250000 1.000000 0.000000 -0.000000 1.000000
-1.000000 0.000000 1.000000 0.000000 -0.000000 1.000000
-0.750000 0.000000 1.000000 0.000000 -0.000000 1.000000
1.000000 -0.750000 -0.250000 1.000000 -0.000000 0.000000
1.000000 -0.750000 0.000000 1.000000 -0.000000 0.000000
1.000000 -1.000000 0.000000 1.000000 -0.000000 0.000000
1.000000 -1.000000 -0.250000 1.000000 -0.000000 0.000000
1.000000 0.250000 -0.250000 1.000000 -0.000000 0.000000
1.000000 0.250000 0.000000 1.000000 -0.000000 0.000000
1.000000 -0.000000 0.000000 1.000000 -0.000000 0.000000
1.000000 -0.000000 -0.250000 1.000000 -0.000000 0.000000
1.000000 0.250000 0.750000 1.000000 -0.000000 -0.000000
1.000000 0.249999 1.000000 1.000000 -0.000000 -0.000000
1.000000 -0.000001 1.000000 1.000000 -0.000000 -0.000000
1.000000 -0.000000 0.750000 1.000000 -0.000000 -0.000000
-0.750000 -1.000000 -0.250000 -0.000000 -1.000000 0.000000
-0.750000 -1.000000 0.000000 -0.000000 -1.000000 0.000000
-1.000000 -1.000000 0.000000 -0.000000 -1.000000 0.000000
-1.000000 -1.000000 -0.250000 -0.000000 -1.000000 0.000000
0.250000 -1.000000 -0.250000 0.000000 -1.000000 0.000000
0.250000 -1.000000 0.000000 0.000000 -1.000000 0.000000
-0.000000 -1.000000 0.000000 0.000000 -1.000000 0.000000
-0.000000 -1.000000 -0.250000 0.000000 -1.000000 0.000000
0.249999 -1.000000 0.750000 -0.000000 -1.000000 -0.000000
0.249999 -1.000000 1.000000 -0.000000 -1.000000 -0.000000
-0.000001 -1.000000 1.000000 -0.000000 -1.000000 -0.000000
-0.000000 -1.000000 0.750000 -0.000000 -1.000000 -0.000000
-1.000000 0.750000 -0.250000 -1.000000 0.000000 0.000000
-1.000000 0.750000 0.000000 -1.000000 0.000000 0.000000
-1.000000 1.000000 0.000000 -1.000000 0.000000 0.000000
-1.000000 1.000000 -0.250000 -1.000000 0.000000 0.000000
-1.000000 -0.250000 -0.250000 -1.000000 -0.000000 0.000000
-1.000000 -0.250000 0.000000 -1.000000 -0.000000 0.000000
-1.000000 0.000000 0.000000 -1.000000 -0.000000 0.000000
-1.000000 0.000000 -0.250000 -1.000000 -0.000000 0.000000
-1.000000 -0.250000 0.750000 -1.000000 0.000000 -0.000000
-1.000000 -0.250000 1.000000 -1.000000 0.000000 -0.000000
-1.000000 0.000000 1.000000 -1.000000 0.000000 -0.000000
-1.000000 0.000000 0.750000 -1.000000 0.000000 -0.000000
-0.750000 1.000000 0.250000 0.000000 1.000000 0.000000
-0.750000 1.000000 0.000000 0.000000 1.000000 0.000000
-1.000000 1.000000 0.000000 0.000000 1.000000 0.000000
-1.000000 1.000000 0.250000 0.000000 1.000000 0.000000
0.250000 1.000000 0.250000 0.000000 1.000000 0.000000
0.250000 1.000000 0.000000 0.000000 1.000000 0.000000
0.000000 1.000000 0.000000 0.000000 1.000000 0.000000
0.000000 1.000000 0.250000 0.000000 1.000000 0.000000
0.250000 1.000000 -0.750000 0.000000 1.000000 0.000000
0.250000 1.000000 -1.000000 0.000000 1.000000 0.000000
0.000000 1.000000 -1.000000 0.000000 1.000000 0.000000
0.000000 1.000000 -0.750000 0.000000 1.000000 0.000000
-0.750000 -0.250000 -1.000000 0.000000 0.000000 -1.000000
-0.750000 -0.500000 -1.000000 0.000000 0.000000 -1.000000
-1.000000 -0.500000 -1.000000 0.000000 0.000000 -1.000000
-1.000000 -0.250000 -1.000000 0.000000 0.000000 -1.000000
-0.250000 -0.250000 -1.000000 0.000000 0.000000 -1.000000
-0.250000 -0.500000 -1.000000 0.000000 0.000000 -1.000000
-0.500000 -0.500000 -1.000000 0.000000 0.000000 -1.000000
-0.500000 -0.250000 -1.000000 0.000000 0.000000 -1.000000
-0.250000 -0.750000 -1.000000 0.000000 0.000000 -1.000000
-0.250000 -1.000000 -1.000000 0.000000 0.000000 -1.000000
-0.500000 -1.000000 -1.000000 0.000000 0.000000 -1.000000
-0.500000 -0.750000 -1.000000 0.000000 0.000000 -1.000000
-0.250000 -0.750000 1.000000 0.000000 -0.000000 1.000000
-0.500000 -0.750000 1.000000 0.000000 -0.000000 1.000000
-0.500000 -1.000000 1.000000 0.000000 -0.000000 1.000000
-0.250001 -1.000000 1.000000 0.000000 -0.000000 1.000000
-0.250000 -0.250000 1.000000 0.000000 -0.000000 1.000000
-0.500000 -0.250000 1.000000 0.000000 -0.000000 1.000000
-0.500000 -0.500000 1.000000 0.000000 -0.000000 1.000000
-0.250000 -0.500000 1.000000 0.000000 -0.000000 1.000000
-0.750000 -0.250000 1.000000 0.000000 -0.000000 1.000000
-1.000000 -0.250000 1.000000 0.000000 -0.000000 1.000000
-1.000000 -0.500000 1.000000 0.000000 -0.000000 1.000000
-0.750000 -0.500000 1.000000 0.000000 -0.000000 1.000000
1.000000 -0.750000 0.250000 1.000000 -0.000000 0.000000
1.000000 -0.750000 0.500000 1.000000 -0.000000 0.000000
1.000000 -1.000000 0.500000 1.000000 -0.000000 0.000000
1.000000 -1.000000 0.250000 1.000000 -0.000000 0.000000
1.000000 -0.250000 0.250000 1.000000 -0.000000 0.000000
1.000000 -0.250000 0.500000 1.000000 -0.000000 0.000000
1.000000 -0.500000 0.500000 1.000000 -0.000000 0.000000
1.000000 -0.500000 0.250000 1.000000 -0.000000 0.000000
1.000000 -0.250000 0.750000 1.000000 -0.000000 -0.000000
1.000000 -0.250001 1.000000 1.000000 -0.000000 -0.000000
1.000000 -0.500001 1.000000 1.000000 -0.000000 -0.000000
1.000000 -0.500000 0.750000 1.000000 -0.000000 -0.000000
-0.750000 -1.000000 0.250000 -0.000000 -1.000000 0.000000
-0.750000 -1.000000 0.500000 -0.000000 -1.000000 0.000000
-1.000000 -1.000000 0.500000 -0.000000 -1.000000 0.000000
-1.000000 -1.000000 0.250000 -0.000000 -1.000000 0.000000
-0.250000 -1.000000 0.250000 -0.000000 -1.000000 -0.000000
-0.250000 -1.000000 0.500000 -0.000000 -1.000000 -0.000000
-0.500000 -1.000000 0.500000 -0.000000 -1.000000 -0.000000
-0.500000 -1.000000 0.250000 -0.000000 -1.000000 -0.000000
-0.250000 -1.000000 0.750000 -0.000000 -1.000000 -0.000000
-0.250001 -1.000000 1.000000 -0.000000 -1.000000 -0.000000
-0.500000 -1.000000 1.000000 -0.000000 -1.000000 -0.000000
-0.500000 -1.000000 0.750000 -0.000000 -1.000000 -0.000000
-1.000000 0.750000 0.250000 -1.000000 0.000000 -0.000000
-1.000000 0.750000 0.500000 -1.000000 0.000000 -0.000000
-1.000000 1.000000 0.500000 -1.000000 0.000000 -0.000000
-1.000000 1.000000 0.250000 -1.000000 0.000000 -0.000000
-1.000000 0.250000 0.250000 -1.000000 0.000000 -0.000000
-1.000000 0.250000 0.500000 -1.000000 0.000000 -0.000000
-1.000000 0.500000 0.500000 -1.000000 0.000000 -0.000000
-1.000000 0.500000 0.250000 -1.000000 0.000000 -0.000000
-1.000000 0.250000 0.750000 -1.000000 -0.000000 0.000000
-1.000000 0.250000 1.000000 -1.000000 -0.000000 0.000000
-1.000000 0.500000 1.000000 -1.000000 -0.000000 0.000000
-1.000000 0.500000 0.750000 -1.000000 -0.000000 0.000000
-0.750000 1.000000 -0.250000 -0.000000 1.000000 0.000000
-0.750000 1.000000 -0.500000 -0.000000 1.000000 0.000000
-1.000000 1.000000 -0.500000 -0.000000 1.000000 0.000000
-1.000000 1.000000 -0.250000 -0.000000 1.000000 0.000000
-0.250000 1.000000 -0.250000 0.000000 1.000000 0.000000
-0.250000 1.000000 -0.500000 0.000000 1.000000 0.000000
-0.500000 1.000000 -0.500000 0.000000 1.000000 0.000000
-0.500000 1.000000 -0.250000 0.000000 1.000000 0.000000
-0.250000 1.000000 -0.750000 0.000000 1.000000 0.000000
-0.250000 1.000000 -1.000000 0.000000 1.000000 0.000000
-0.500000 1.000000 -1.000000 0.000000 1.000000 0.000000
-0.500000 1.000000 -0.750000 0.000000 1.000000 0.000000
-0.750000 0.750000 -1.000000 0.000000 0.000000 -1.000000
-0.750000 0.500000 -1.000000 0.000000 0.000000 -1.000000
-1.000000 0.500000 -1.000000 0.000000 0.000000 -1.000000
-1.000000 0.750000 -1.000000 0.000000 0.000000 -1.000000
-0.250000 0.750000 -1.000000 0.000000 0.000000 -1.000000
-0.250000 0.500000 -1.000000 0.000000 0.000000 -1.000000
-0.500000 0.500000 -1.000000 0.000000 0.000000 -1.000000
-0.500000 0.750000 -1.000000 0.000000 0.000000 -1.000000
-0.250000 0.250000 -1.000000 0.000000 0.000000 -1.000000
-0.250000 0.000000 -1.000000 0.000000 0.000000 -1.000000
-0.500000 0.000000 -1.000000 0.000000 0.000000 -1.000000
-0.500000 0.250000 -1.000000 0.000000 0.000000 -1.000000
0.250000 0.750000 -1.000000 0.000000 0.000000 -1.000000
0.250000 0.500000 -1.000000 0.000000 0.000000 -1.000000
0.000000 0.500000 -1.000000 0.000000 0.000000 -1.000000
0.000000 0.750000 -1.000000 0.000000 0.000000 -1.000000
0.750000 0.750000 -1.000000 0.000000 0.000000 -1.000000
0.750000 0.500000 -1.000000 0.000000 0.000000 -1.000000
0.500000 0.500000 -1.000000 0.000000 0.000000 -1.000000
0.500000 0.750000 -1.000000 0.000000 0.000000 -1.000000
0.750000 0.250000 -1.000000 0.000000 0.000000 -1.000000
0.750000 -0.000000 -1.000000 0.000000 0.000000 -1.000000
0.500000 0.000000 -1.000000 0.000000 0.000000 -1.000000
0.500000 0.250000 -1.000000 0.000000 0.000000 -1.000000
0.250000 -0.250000 -1.000000 0.000000 0.000000 -1.000000
0.250000 -0.500000 -1.000000 0.000000 0.000000 -1.000000
0.000000 -0.500000 -1.000000 0.000000 0.000000 -1.000000
0.000000 -0.250000 -1.000000 0.000000 0.000000 -1.000000
0.750000 -0.250000 -1.000000 0.000000 0.000000 -1.000000
0.750000 -0.500000 -1.000000 0.000000 0.000000 -1.000000
0.500000 -0.500000 -1.000000 0.000000 0.000000 -1.000000
0.500000 -0.250000 -1.000000 0.000000 0.000000 -1.000000
0.750000 -0.750000 -1.000000 0.000000 0.000000 -1.000000
0.750000 -1.000000 -1.000000 0.000000 0.000000 -1.000000
0.500000 -1.000000 -1.000000 0.000000 0.000000 -1.000000
0.500000 -0.750000 -1.000000 0.000000 0.000000 -1.000000
0.750000 -0.750000 1.000000 0.000000 -0.000000 1.000000
0.500000 -0.750000 1.000000 0.000000 -0.000000 1.000000
0.499999 -1.000000 1.000000 0.000000 -0.000000 1.000000
0.749999 -1.000000 1.000000 0.000000 -0.000000 1.000000
0.750000 -0.250000 1.000000 0.000000 -0.000000 1.000000
0.500000 -0.250000 1.000000 0.000000 -0.000000 1.000000
0.500000 -0.500000 1.000000 0.000000 -0.000000 1.000000
0.750000 -0.500000 1.000000 0.000000 -0.000000 1.000000
0.250000 -0.250000 1.000000 0.000000 -0.000000 1.000000
-0.000000 -0.250000 1.000000 0.000000 -0.000000 1.000000
-0.000000 -0.500000 1.000000 0.000000 -0.000000 1.000000
0.250000 -0.500000 1.000000 0.000000 -0.000000 1.000000
0.750000 0.250000 1.000000 0.000000 -0.000000 1.000000
0.500000 0.250000 1.000000 0.000000 -0.000000 1.000000
0.500000 -0.000000 1.000000 0.000000 -0.000000 1.000000
0.750000 -0.000000 1.000000 0.000000 -0.000000 1.000000
0.750000 0.750000 1.000000 0.000000 -0.000000 1.000000
0.500000 0.750000 1.000000 0.000000 -0.000000 1.000000
0.500000 0.500000 1.000000 0.000000 -0.000000 1.000000
0.750000 0.500000 1.000000 0.000000 -0.000000 1.000000
0.250000 0.750000 1.000000 0.000000 -0.000000 1.000000
0.000000 0.750000 1.000000 0.000000 -0.000000 1.000000
0.000000 0.500000 1.000000 0.000000 -0.000000 1.000000
0.250000 0.500000 1.000000 0.000000 -0.000000 1.000000
-0.250000 0.250000 1.000000 0.000000 -0.000000 1.000000
-0.500000 0.250000 1.000000 0.000000 -0.000000 1.000000
-0.500000 0.000000 1.000000 0.000000 -0.000000 1.000000
-0.250000 -0.000000 1.000000 0.000000 -0.000000 1.000000
-0.250000 0.750000 1.000000 0.000000 -0.000000 1.000000
-0.500000 0.750000 1.000000 0.000000 -0.000000 1.000000
-0.500000 0.500000 1.000000 0.000000 -0.000000 1.000000
-0.250000 0.500000 1.000000 0.000000 -0.000000 1.000000
-0.750000 0.750000 1.000000 0.000000 -0.000000 1.000000
-1.000000 0.750000 1.000000 0.000000 -0.000000 1.000000
-1.000000 0.500000 1.000000 0.000000 -0.000000 1.000000
-0.750000 0.500000 1.000000 0.000000 -0.000000 1.000000
1.000000 -0.750000 -0.750000 1.000000 -0.000000 0.000000
1.000000 -0.750000 -0.500000 1.000000 -0.000000 0.000000
1.000000 -1.000000 -0.500000 1.000000 -0.000000 0.000000
1.000000 -1.000000 -0.750000 1.000000 -0.000000 0.000000
1.000000 -0.250000 -0.750000 1.000000 -0.000000 0.000000
1.000000 -0.250000 -0.500000 1.000000 -0.000000 0.000000
1.000000 -0.500000 -0.500000 1.000000 -0.000000 0.000000
1.000000 -0.500000 -0.750000 1.000000 -0.000000 0.000000
1.000000 -0.250000 -0.250000 1.000000 -0.000000 0.000000
1.000000 -0.250000 0.000000 1.000000 -0.000000 0.000000
1.000000 -0.500000 0.000000 1.000000 -0.000000 0.000000
1.000000 -0.500000 -0.250000 1.000000 -0.000000 0.000000
1.000000 0.250000 -0.750000 1.000000 -0.000000 0.000000
1.000000 0.250000 -0.500000 1.000000 -0.000000 0.000000
1.000000 -0.000000 -0.500000 1.000000 -0.000000 0.000000
1.000000 -0.000000 -0.750000 1.000000 -0.000000 0.000000
1.000000 0.750000 -0.750000 1.000000 -0.000000 0.000000
1.000000 0.750000 -0.500000 1.000000 -0.000000 0.000000
1.000000 0.500000 -0.500000 1.000000 -0.000000 0.000000
1.000000 0.500000 -0.750000 1.000000 -0.000000 0.000000
1.000000 0.750000 -0.250000 1.000000 -0.000000 -0.000000
1.000000 0.750000 0.000000 1.000000 -0.000000 -0.000000
1.000000 0.500000 0.000000 1.000000 -0.000000 -0.000000
1.000000 0.500000 -0.250000 1.000000 -0.000000 -0.000000
1.000000 0.250000 0.250000 1.000000 -0.000000 -0.000000
1.000000 0.250000 0.500000 1.000000 -0.000000 -0.000000
1.000000 -0.000000 0.500000 1.000000 -0.000000 -0.000000
1.000000 -0.000000 0.250000 1.000000 -0.000000 -0.000000
1.000000 0.750000 0.250000 1.000000 -0.000000 -0.000000
1.000000 0.750000 0.500000 1.000000 -0.000000 -0.000000
1.000000 0.500000 0.500000 1.000000 -0.000000 -0.000000
1.000000 0.500000 0.250000 1.000000 -0.000000 -0.000000
1.000000 0.750000 0.750000 1.000000 -0.000000 -0.000000
1.000000 0.749999 1.000000 1.000000 -0.000000 -0.000000
1.000000 0.499999 1.000000 1.000000 -0.000000 -0.000000
1.000000 0.500000 0.750000 1.000000 -0.000000 -0.000000
-0.750000 -1.000000 -0.750000 -0.000000 -1.000000 -0.000000
-0.750000 -1.000000 -0.500000 -0.000000 -1.000000 -0.000000
-1.000000 -1.000000 -0.500000 -0.000000 -1.000000 -0.000000
-1.000000 -1.000000 -0.750000 -0.000000 -1.000000 -0.000000
-0.250000 -1.000000 -0.750000 0.000000 -1.000000 0.000000
-0.250000 -1.000000 -0.500000 0.000000 -1.000000 0.000000
-0.500000 -1.000000 -0.500000 0.000000 -1.000000 0.000000
-0.500000 -1.000000 -0.750000 0.000000 -1.000000 0.000000
-0.250000 -1.000000 -0.250000 -0.000000 -1.000000 -0.000000
-0.250000 -1.000000 0.000000 -0.000000 -1.000000 -0.000000
-0.500000 -1.000000 0.000000 -0.000000 -1.000000 -0.000000
-0.500000 -1.000000 -0.250000 -0.000000 -1.000000 -0.000000
0.250000 -1.000000 -0.750000 -0.000000 -1.000000 -0.000000
0.250000 -1.000000 -0.500000 -0.000000 -1.000000 -0.000000
-0.000000 -1.000000 -0.500000 -0.000000 -1.000000 -0.000000
-0.000000 -1.000000 -0.750000 -0.000000 -1.000000 -0.000000
0.750000 -1.000000 -0.750000 0.000000 -1.000000 0.000000
0.750000 -1.000000 -0.500000 0.000000 -1.000000 0.000000
0.500000 -1.000000 -0.500000 0.000000 -1.000000 0.000000
0.500000 -1.000000 -0.750000 0.000000 -1.000000 0.000000
0.750000 -1.000000 -0.250000 -0.000000 -1.000000 -0.000000
0.750000 -1.000000 0.000000 -0.000000 -1.000000 -0.000000
0.500000 -1.000000 0.000000 -0.000000 -1.000000 -0.000000
0.500000 -1.000000 -0.250000 -0.000000 -1.000000 -0.000000
0.250000 -1.000000 0.250000 -0.000000 -1.000000 -0.000000
0.250000 -1.000000 0.500000 -0.000000 -1.000000 -0.000000
-0.000000 -1.000000 0.500000 -0.000000 -1.000000 -0.000000
-0.000000 -1.000000 0.250000 -0.000000 -1.000000 -0.000000
0.750000 -1.000000 0.250000 -0.000000 -1.000000 -0.000000
0.750000 -1.000000 0.500000 -0.000000 -1.000000 -0.000000
0.500000 -1.000000 0.500000 -0.000000 -1.000000 -0.000000
0.500000 -1.000000 0.250000 -0.000000 -1.000000 -0.000000
0.749999 -1.000000 0.750000 -0.000000 -1.000000 -0.000000
0.749999 -1.000000 1.000000 -0.000000 -1.000000 -0.000000
0.499999 -1.000000 1.000000 -0.000000 -1.000000 -0.000000
0.499999 -1.000000 0.750000 -0.000000 -1.000000 -0.000000
-1.000000 0.750000 -0.750000 -1.000000 0.000000 -0.000000
-1.000000 0.750000 -0.500000 -1.000000 0.000000 -0.000000
-1.000000 1.000000 -0.500000 -1.000000 0.000000 -0.000000
-1.000000 1.000000 -0.750000 -1.000000 0.000000 -0.000000
-1.000000 0.250000 -0.750000 -1.000000 0.000000 -0.000000
-1.000000 0.250000 -0.500000 -1.000000 0.000000 -0.000000
-1.000000 0.500000 -0.500000 -1.000000 0.000000 -0.000000
-1.000000 0.500000 -0.750000 -1.000000 0.000000 -0.000000
-1.000000 0.250000 -0.250000 -1.000000 0.000000 0.000000
-1.000000 0.250000 0.000000 -1.000000 0.000000 0.000000
-1.000000 0.500000 0.000000 -1.000000 0.000000 0.000000
-1.000000 0.500000 -0.250000 -1.000000 0.000000 0.000000
-1.000000 -0.250000 -0.750000 -1.000000 0.000000 -0.000000
-1.000000 -0.250000 -0.500000 -1.000000 0.000000 -0.000000
-1.000000 0.000000 -0.500000 -1.000000 0.000000 -0.000000
-1.000000 0.000000 -0.750000 -1.000000 0.000000 -0.000000
-1.000000 -0.750000 -0.750000 -1.000000 0.000000 -0.000000
-1.000000 -0.750000 -0.500000 -1.000000 0.000000 -0.000000
-1.000000 -0.500000 -0.500000 -1.000000 0.000000 -0.000000
-1.000000 -0.500000 -0.750000 -1.000000 0.000000 -0.000000
-1.000000 -0.750000 -0.250000 -1.000000 0.000000 0.000000
-1.000000 -0.750000 0.000000 -1.000000 0.000000 0.000000
-1.000000 -0.500000 0.000000 -1.000000 0.000000 0.000000
-1.000000 -0.500000 -0.250000 -1.000000 0.000000 0.000000
-1.000000 -0.250000 0.250000 -1.000000 -0.000000 0.000000
-1.000000 -0.250000 0.500000 -1.000000 -0.000000 0.000000
-1.000000 0.000000 0.500000 -1.000000 -0.000000 0.000000
-1.000000 0.000000 0.250000 -1.000000 -0.000000 0.000000
-1.000000 -0.750000 0.250000 -1.000000 0.000000 0.000000
-1.000000 -0.750000 0.500000 -1.000000 0.000000 0.000000
-1.000000 -0.500000 0.500000 -1.000000 0.000000 0.000000
-1.000000 -0.500000 0.250000 -1.000000 0.000000 0.000000
-1.000000 -0.750000 0.750000 -1.000000 -0.000000 0.000000
-1.000000 -0.750000 1.000000 -1.000000 -0.000000 0.000000
-1.000000 -0.500000 1.000000 -1.000000 -0.000000 0.000000
-1.000000 -0.500000 0.750000 -1.000000 -0.000000 0.000000
-0.750000 1.000000 0.750000 0.000000 1.000000 0.000000
-0.750000 1.000000 0.500000 0.000000 1.000000 0.000000
-1.000000 1.000000 0.500000 0.000000 1.000000 0.000000
-1.000000 1.000000 0.750000 0.000000 1.000000 0.000000
-0.250000 1.000000 0.750000 0.000000 1.000000 0.000000
-0.250000 1.000000 0.500000 0.000000 1.000000 0.000000
-0.500000 1.000000 0.500000 0.000000 1.000000 0.000000
-0.500000 1.000000 0.750000 0.000000 1.000000 0.000000
-0.250000 1.000000 0.250000 0.000000 1.000000 0.000000
-0.250000 1.000000 0.000000 0.000000 1.000000 0.000000
-0.500000 1.000000 0.000000 0.000000 1.000000 0.000000
-0.500000 1.000000 0.250000 0.000000 1.000000 0.000000
0.250000 1.000000 0.750000 0.000000 1.000000 0.000000
0.250000 1.000000 0.500000 0.000000 1.000000 0.000000
0.000000 1.000000 0.500000 0.000000 1.000000 0.000000
0.000000 1.000000 0.750000 0.000000 1.000000 0.000000
0.750000 1.000000 0.750000 0.000000 1.000000 0.000000
0.750000 1.000000 0.500000 0.000000 1.000000 0.000000
0.500000 1.000000 0.500000 0.000000 1.000000 0.000000
0.500000 1.000000 0.750000 0.000000 1.000000 0.000000
0.750000 1.000000 0.250000 0.000000 1.000000 0.000000
0.750000 1.000000 0.000000 0.000000 1.000000 0.000000
0.500000 1.000000 0.000000 0.000000 1.000000 0.000000
0.500000 1.000000 0.250000 0.000000 1.000000 0.000000
0.250000 1.000000 -0.250000 0.000000 1.000000 -0.000000
0.250000 1.000000 -0.500000 0.000000 1.000000 -0.000000
0.000000 1.000000 -0.500000 0.000000 1.000000 -0.000000
0.000000 1.000000 -0.250000 0.000000 1.000000 -0.000000
0.750000 1.000000 -0.250000 0.000000 1.000000 0.000000
0.750000 1.000000 -0.500000 0.000000 1.000000 0.000000
0.500000 1.000000 -0.500000 0.000000 1.000000 0.000000
0.500000 1.000000 -0.250000 0.000000 1.000000 0.000000
0.750000 1.000000 -0.750000 0.000000 1.000000 0.000000
0.750000 1.000000 -1.000000 0.000000 1.000000 0.000000
0.500000 1.000000 -1.000000 0.000000 1.000000 0.000000
0.500000 1.000000 -0.750000 0.000000 1.000000 0.000000
1.000000 -0.750000 0.750000 1.000000 -0.000000 0.000000
0.999999 -1.000000 0.750000 1.000000 -0.000000 0.000000
1.000000 -0.750001 1.000000 1.000000 -0.000000 -0.000000
1.000000 0.500000 0.500000 1.000000 -0.000001 -0.000000
1.000000 0.500000 0.750000 1.000000 -0.000001 -0.000000
1.000000 0.250000 0.750000 1.000000 -0.000001 -0.000000
1.000000 0.250000 0.500000 1.000000 -0.000001 -0.000000
1.000000 0.499999 1.000000 1.000000 -0.000001 -0.000000
1.000000 0.249999 1.000000 1.000000 -0.000001 -0.000000
-0.750000 1.000000 -1.000000 0.000000 0.000000 -1.000000
-1.000000 1.000000 -1.000000 0.000000 0.000000 -1.000000
-0.500000 1.000000 -1.000000 0.000000 0.000000 -1.000000
-0.250000 1.000000 -1.000000 0.000000 0.000000 -1.000000
0.000000 1.000000 -1.000000 0.000000 0.000000 -1.000000
0.250000 1.000000 -1.000000 0.000000 0.000000 -1.000000
0.500000 1.000000 -1.000000 0.000000 0.000000 -1.000000
0.750000 1.000000 -1.000000 0.000000 0.000000 -1.000000
1.000000 1.000000 -1.000000 0.000000 0.000000 -1.000000
1.000000 0.750000 -1.000000 0.000000 0.000000 -1.000000
1.000000 0.500000 -1.000000 0.000000 0.000000 -1.000000
1.000000 0.250000 -1.000000 0.000000 0.000000 -1.000000
1.000000 -0.000000 -1.000000 0.000000 0.000000 -1.000000
1.000000 -0.250000 -1.000000 0.000000 0.000000 -1.000000
1.000000 -0.500000 -1.000000 0.000000 0.000000 -1.000000
1.000000 -0.750000 -1.000000 0.000000 0.000000 -1.000000
1.000000 -1.000000 -1.000000 0.000000 0.000000 -1.000000
1.000000 -0.750001 1.000000 0.000000 -0.000000 1.000000
0.999999 -1.000001 1.000000 0.000000 -0.000000 1.000000
1.000000 -0.500001 1.000000 0.000000 -0.000000 1.000000
1.000000 -0.250001 1.000000 0.000000 -0.000000 1.000000
1.000000 -0.000001 1.000000 0.000000 -0.000000 1.000000
1.000000 0.249999 1.000000 0.000000 -0.000000 1.000000
1.000000 0.499999 1.000000 0.000000 -0.000000 1.000000
1.000000 0.749999 1.000000 0.000000 -0.000000 1.000000
1.000000 0.999999 1.000000 0.000000 -0.000000 1.000000
0.750000 1.000000 1.000000 0.000000 -0.000000 1.000000
0.500000 1.000000 1.000000 0.000000 -0.000000 1.000000
0.250000 1.000000 1.000000 0.000000 -0.000000 1.000000
0.000000 1.000000 1.000000 0.000000 -0.000000 1.000000
-0.250000 1.000000 1.000000 0.000000 -0.000000 1.000000
-0.500000 1.000000 1.000000 0.000000 -0.000000 1.000000
-0.750000 1.000000 1.000000 0.000000 -0.000000 1.000000
-1.000000 1.000000 1.000000 0.000000 -0.000000 1.000000
1.000000 -0.750000 -1.000000 1.000000 0.000000 0.000000
1.000000 -1.000000 -1.000000 1.000000 0.000000 0.000000
1.000000 -0.500000 -1.000000 1.000000 -0.000000 0.000000
1.000000 -0.250000 -1.000000 1.000000 -0.000000 0.000000
1.000000 -0.000000 -1.000000 1.000000 -0.000000 0.000000
1.000000 0.250000 -1.000000 1.000000 -0.000000 0.000000
1.000000 0.500000 -1.000000 1.000000 -0.000000 0.000000
1.000000 0.750000 -1.000000 1.000000 -0.000000 0.000000
1.000000 1.000000 -1.000000 1.000000 -0.000000 0.000000
1.000000 1.000000 -0.750000 1.000000 -0.000000 0.000000
1.000000 1.000000 -0.500000 1.000000 -0.000000 -0.000000
1.000000 1.000000 -0.250000 1.000000 -0.000000 -0.000000
1.000000 1.000000 0.000000 1.000000 -0.000000 -0.000000
1.000000 1.000000 0.250000 1.000000 -0.000000 0.000000
1.000000 1.000000 0.500000 1.000000 -0.000000 -0.000000
1.000000 1.000000 0.750000 1.000000 -0.000000 -0.000000
1.000000 0.999999 1.000000 1.000000 -0.000000 -0.000000
-0.750000 -1.000000 -1.000000 -0.000000 -1.000000 0.000000
-1.000000 -1.000000 -1.000000 -0.000000 -1.000000 0.000000
-0.500000 -1.000000 -1.000000 -0.000000 -1.000000 0.000000
-0.250000 -1.000000 -1.000000 0.000000 -1.000000 0.000000
0.000000 -1.000000 -1.000000 0.000000 -1.000000 0.000000
0.250000 -1.000000 -1.000000 -0.000000 -1.000000 -0.000000
0.500000 -1.000000 -1.000000 -0.000000 -1.000000 -0.000000
0.750000 -1.000000 -1.000000 -0.000000 -1.000000 -0.000000
1.000000 -1.000000 -1.000000 0.000000 -1.000000 0.000000
1.000000 -1.000000 -0.750000 0.000000 -1.000000 0.000000
1.000000 -1.000000 -0.500000 -0.000000 -1.000000 -0.000000
1.000000 -1.000000 -0.250000 -0.000000 -1.000000 -0.000000
1.000000 -1.000000 0.000000 -0.000000 -1.000000 -0.000000
1.000000 -1.000000 0.250000 -0.000000 -1.000000 -0.000000
1.000000 -1.000000 0.500000 -0.000000 -1.000000 -0.000000
0.999999 -1.000000 0.750000 -0.000000 -1.000000 -0.000000
0.999999 -1.000001 1.000000 -0.000000 -1.000000 -0.000000
-1.000000 0.750000 -1.000000 -1.000000 0.000000 0.000000
-1.000000 1.000000 -1.000000 -1.000000 0.000000 0.000000
-1.000000 0.500000 -1.000000 -1.000000 0.000000 0.000000
-1.000000 0.250000 -1.000000 -1.000000 0.000000 0.000000
-1.000000 0.000000 -1.000000 -1.000000 0.000000 0.000000
-1.000000 -0.250000 -1.000000 -1.000000 0.000000 0.000000
-1.000000 -0.500000 -1.000000 -1.000000 0.000000 0.000000
-1.000000 -0.750000 -1.000000 -1.000000 0.000000 -0.000000
-1.000000 -1.000000 -1.000000 -1.000000 0.000000 -0.000000
-1.000000 -1.000000 -0.750000 -1.000000 0.000000 -0.000000
-1.000000 -1.000000 -0.500000 -1.000000 0.000000 -0.000000
-1.000000 -1.000000 -0.250000 -1.000000 -0.000000 0.000000
-1.000000 -1.000000 0.000000 -1.000000 -0.000000 0.000000
-1.000000 -1.000000 0.250000 -1.000000 -0.000000 0.000000
-1.000000 -1.000000 0.500000 -1.000000 -0.000000 0.000000
-1.000000 -1.000000 0.750000 -1.000000 -0.000000 0.000000
-1.000000 -1.000000 1.000000 -1.000000 0.000000 -0.000000
-0.750000 1.000000 1.000000 0.000000 1.000000 0.000000
-1.000000 1.000000 1.000000 0.000000 1.000000 0.000000
-0.500000 1.000000 1.000000 0.000000 1.000000 0.000000
-0.250000 1.000000 1.000000 0.000000 1.000000 0.000000
0.000000 1.000000 1.000000 0.000000 1.000000 0.000000
0.250000 1.000000 1.000000 0.000000 1.000000 0.000000
0.500000 1.000000 1.000000 0.000000 1.000000 0.000000
0.750000 1.000000 1.000000 0.000000 1.000000 0.000000
1.000000 0.999999 1.000000 0.000000 1.000000 0.000000
1.000000 1.000000 0.750000 0.000000 1.000000 0.000000
1.000000 1.000000 0.500000 0.000000 1.000000 0.000000
1.000000 1.000000 0.250000 0.000000 1.000000 0.000000
1.000000 1.000000 0.000000 0.000000 1.000000 0.000000
1.000000 1.000000 -0.250000 0.000000 1.000000 0.000000
1.000000 1.000000 -0.500000 0.000000 1.000000 0.000000
1.000000 1.000000 -0.750000 0.000000 1.000000 0.000000
1.000000 1.000000 -1.000000 0.000000 1.000000 0.000000
4 0 1 2 3
4 4 5 6 7
4 8 9 10 11
4 12 13 14 15
4 16 17 18 19
4 20 21 22 23
4 24 25 26 27
4 28 29 30 31
4 32 33 34 35
4 36 37 38 39
4 40 41 42 43
4 44 45 46 47
4 48 49 50 51
4 52 53 54 55
4 56 57 58 59
4 60 61 62 63
4 64 65 66 67
4 68 69 70 71
4 72 73 74 75
4 76 77 78 79
4 80 81 82 83
4 84 85 86 87
4 88 89 90 91
4 92 93 94 95
4 96 97 98 99
4 100 101 102 103
4 104 105 106 107
4 108 109 110 111
4 112 113 114 115
4 116 117 118 119
4 120 121 122 123
4 124 125 126 127
4 128 129 130 131
4 132 133 134 135
4 136 137 138 139
4 140 141 142 143
4 144 145 146 147
4 148 149 150 151
4 152 153 154 155
4 156 157 158 159
4 160 161 162 163
4 164 165 166 167
4 168 169 170 171
4 172 173 174 175
4 176 177 178 179
4 180 181 182 183
4 184 185 186 187
4 188 189 190 191
4 192 193 194 195
4 196 197 198 199
4 200 201 202 203
4 204 205 206 207
4 208 209 210 211
4 212 213 214 215
4 216 217 218 219
4 220 221 222 223
4 224 225 226 227
4 228 229 230 231
4 232 233 234 235
4 236 237 238 239
4 240 241 242 243
4 244 245 246 247
4 248 249 250 251
4 252 253 254 255
4 256 257 258 259
4 260 261 262 263
4 264 265 266 267
4 268 269 270 271
4 272 273 274 275
4 276 277 278 279
4 280 281 282 283
4 284 285 286 287
4 288 289 290 291
4 292 293 294 295
4 296 297 298 299
4 300 301 302 303
4 304 305 306 307
4 308 309 310 311
4 312 313 314 315
4 316 317 318 319
4 320 321 322 323
4 324 325 326 327
4 328 329 330 331
4 332 333 334 335
4 336 337 338 339
4 340 341 342 343
4 344 345 346 347
4 348 349 350 351
4 352 353 354 355
4 356 357 358 359
4 360 361 362 363
4 364 365 366 367
4 368 369 370 371
4 372 373 374 375
4 376 377 378 379
4 380 381 382 383
4 97 0 3 98
4 102 107 0 97
4 107 106 1 0
4 109 4 7 110
4 114 119 4 109
4 119 118 5 4
4 121 384 385 122
4 126 131 384 121
4 131 130 386 384
4 133 12 15 134
4 138 143 12 133
4 143 142 13 12
4 145 16 19 146
4 150 155 16 145
4 155 154 17 16
4 157 20 23 158
4 162 167 20 157
4 167 166 21 20
4 169 24 27 170
4 174 179 24 169
4 179 178 25 24
4 181 28 31 182
4 186 191 28 181
4 191 190 29 28
4 193 32 35 194
4 198 203 32 193
4 203 202 33 32
4 205 36 39 206
4 210 215 36 205
4 215 214 37 36
4 217 40 43 218
4 222 227 40 217
4 227 226 41 40
4 229 44 47 230
4 234 239 44 229
4 239 238 45 44
4 241 48 51 242
4 246 251 48 241
4 251 250 49 48
4 253 52 55 254
4 258 263 52 253
4 263 262 53 52
4 265 56 59 266
4 387 388 389 390
4 388 391 392 389
4 277 60 63 278
4 282 287 60 277
4 287 286 61 60
4 289 64 67 290
4 294 299 64 289
4 299 298 65 64
4 301 68 71 302
4 306 311 68 301
4 311 310 69 68
4 313 72 75 314
4 318 323 72 313
4 323 322 73 72
4 325 76 79 326
4 330 335 76 325
4 335 334 77 76
4 337 80 83 338
4 342 347 80 337
4 347 346 81 80
4 349 84 87 350
4 354 359 84 349
4 359 358 85 84
4 361 88 91 362
4 366 371 88 361
4 371 370 89 88
4 373 92 95 374
4 378 383 92 373
4 383 382 93 92
4 25 96 99 26
4 178 103 96 25
4 103 102 97 96
4 177 100 103 178
4 30 195 100 177
4 195 194 101 100
4 101 104 107 102
4 194 35 104 101
4 35 34 105 104
4 37 108 111 38
4 214 115 108 37
4 115 114 109 108
4 213 112 115 214
4 42 231 112 213
4 231 230 113 112
4 113 116 119 114
4 230 47 116 113
4 47 46 117 116
4 49 120 123 50
4 250 127 120 49
4 127 126 121 120
4 249 124 127 250
4 54 267 124 249
4 267 266 125 124
4 125 128 131 126
4 266 59 128 125
4 59 58 129 128
4 61 132 135 62
4 286 139 132 61
4 139 138 133 132
4 285 136 139 286
4 66 303 136 285
4 303 302 137 136
4 137 140 143 138
4 302 71 140 137
4 71 70 141 140
4 73 144 147 74
4 322 151 144 73
4 151 150 145 144
4 321 148 151 322
4 78 339 148 321
4 339 338 149 148
4 149 152 155 150
4 338 83 152 149
4 83 82 153 152
4 85 156 159 86
4 358 163 156 85
4 163 162 157 156
4 357 160 163 358
4 90 375 160 357
4 375 374 161 160
4 161 164 167 162
4 374 95 164 161
4 95 94 165 164
4 393 168 171 394
4 395 175 168 393
4 175 174 169 168
4 396 172 175 395
4 397 183 172 396
4 183 182 173 172
4 173 176 179 174
4 182 31 176 173
4 31 30 177 176
4 398 180 183 397
4 399 187 180 398
4 187 186 181 180
4 400 184 187 399
4 401 402 184 400
4 402 403 185 184
4 185 188 191 186
4 403 404 188 185
4 404 405 189 188
4 29 192 195 30
4 190 199 192 29
4 199 198 193 192
4 189 196 199 190
4 405 406 196 189
4 406 407 197 196
4 197 200 203 198
4 407 408 200 197
4 408 409 201 200
4 410 204 207 411
4 412 211 204 410
4 211 210 205 204
4 413 208 211 412
4 414 219 208 413
4 219 218 209 208
4 209 212 215 210
4 218 43 212 209
4 43 42 213 212
4 415 216 219 414
4 416 223 216 415
4 223 222 217 216
4 417 220 223 416
4 418 419 220 417
4 419 420 221 220
4 221 224 227 222
4 420 421 224 221
4 421 422 225 224
4 41 228 231 42
4 226 235 228 41
4 235 234 229 228
4 225 232 235 226
4 422 423 232 225
4 423 424 233 232
4 233 236 239 234
4 424 425 236 233
4 425 426 237 236
4 427 240 243 428
4 429 247 240 427
4 247 246 241 240
4 430 244 247 429
4 431 255 244 430
4 255 254 245 244
4 245 248 251 246
4 254 55 248 245
4 55 54 249 248
4 432 252 255 431
4 433 259 252 432
4 259 258 253 252
4 434 256 259 433
4 435 436 256 434
4 436 437 257 256
4 257 260 263 258
4 437 438 260 257
4 438 439 261 260
4 53 264 267 54
4 262 271 264 53
4 271 270 265 264
4 261 268 271 262
4 439 440 268 261
4 440 441 269 268
4 269 272 275 270
4 441 442 272 269
4 442 443 273 272
4 444 276 279 445
4 446 283 276 444
4 283 282 277 276
4 447 280 283 446
4 448 291 280 447
4 291 290 281 280
4 281 284 287 282
4 290 67 284 281
4 67 66 285 284
4 449 288 291 448
4 450 295 288 449
4 295 294 289 288
4 451 292 295 450
4 452 453 292 451
4 453 454 293 292
4 293 296 299 294
4 454 455 296 293
4 455 456 297 296
4 65 300 303 66
4 298 307 300 65
4 307 306 301 300
4 297 304 307 298
4 456 457 304 297
4 457 458 305 304
4 305 308 311 306
4 458 459 308 305
4 459 460 309 308
4 461 312 315 462
4 463 319 312 461
4 319 318 313 312
4 464 316 319 463
4 465 327 316 464
4 327 326 317 316
4 317 320 323 318
4 326 79 320 317
4 79 78 321 320
4 466 324 327 465
4 467 331 324 466
4 331 330 325 324
4 468 328 331 467
4 469 470 328 468
4 470 471 329 328
4 329 332 335 330
4 471 472 332 329
4 472 473 333 332
4 77 336 339 78
4 334 343 336 77
4 343 342 337 336
4 333 340 343 334
4 473 474 340 333
4 474 475 341 340
4 341 344 347 342
4 475 476 344 341
4 476 477 345 344
4 478 348 351 479
4 480 355 348 478
4 355 354 349 348
4 481 352 355 480
4 482 363 352 481
4 363 362 353 352
4 353 356 359 354
4 362 91 356 353
4 91 90 357 356
4 483 360 363 482
4 484 367 360 483
4 367 366 361 360
4 485 364 367 484
4 486 487 364 485
4 487 488 365 364
4 365 368 371 366
4 488 489 368 365
4 489 490 369 368
4 89 372 375 90
4 370 379 372 89
4 379 378 373 372
4 369 376 379 370
4 490 491 376 369
4 491 492 377 376
4 377 380 383 378
4 492 493 380 377
4 493 494 381 380
